<?xml version="1.0" encoding="UTF-8"?>
<svg version="1.1" xmlns="http://www.w3.org/2000/svg" width="414" height="238">
<path d="M0 0 C0.82516113 0.61814575 0.82516113 0.61814575 1.66699219 1.2487793 C3.7487754 2.90194037 5.3559281 4.32856013 6.53515625 6.734375 C6.58428348 10.35575382 5.55545512 12.66587204 3.10009766 15.34667969 C1.23014674 17.15311114 -0.68363707 18.89559264 -2.625 20.625 C-3.93216344 21.80860072 -5.23815688 22.99349489 -6.54296875 24.1796875 C-7.1872583 24.76242432 -7.83154785 25.34516113 -8.49536133 25.94555664 C-11.06200534 28.33022866 -13.50880637 30.82192493 -15.94287109 33.34106445 C-17.4375 34.75 -17.4375 34.75 -19.875 36.0625 C-23.50267772 35.62010028 -25.40963837 33.7023799 -28.2109375 31.44140625 C-42.19259616 20.82025151 -59.24864947 20.29092977 -76.0390625 22.1484375 C-82.96553299 23.55566238 -88.14897163 26.79981219 -93.84375 30.91015625 C-96.4375 32.75 -96.4375 32.75 -98.71875 33.80859375 C-100.79646502 34.69333384 -100.79646502 34.69333384 -101.4375 37.75 C-102.0975 37.75 -102.7575 37.75 -103.4375 37.75 C-103.84355469 38.60078125 -103.84355469 38.60078125 -104.2578125 39.46875 C-105.4806028 41.83335112 -106.87256104 44.01175292 -108.3125 46.25 C-116.711209 60.25469325 -117.85882307 74.96059405 -114.4375 90.75 C-110.92841796 101.65928328 -103.82510882 112.09475134 -94.4375 118.75 C-93.74527344 119.26175781 -93.05304688 119.77351562 -92.33984375 120.30078125 C-79.06943658 129.22895168 -62.80656048 130.37462503 -47.44921875 127.50390625 C-38.64601572 125.30025102 -28.9705003 121.2830003 -22.4375 114.75 C-18.42012347 114.18465878 -16.86354114 114.43629322 -13.55322266 116.8737793 C-12.55333962 117.84099155 -11.57014962 118.82566749 -10.6015625 119.82421875 C-10.07734711 120.34506546 -9.55313171 120.86591217 -9.01303101 121.40254211 C-7.9116917 122.50417966 -6.81777763 123.61328455 -5.73095703 124.72924805 C-4.06596501 126.43395234 -2.373569 128.10732258 -0.67578125 129.77929688 C0.39238727 130.85502381 1.45885426 131.93244355 2.5234375 133.01171875 C3.02958588 133.51088303 3.53573425 134.0100473 4.05722046 134.52433777 C6.27498889 136.8334295 7.49582246 138.28163296 7.95336914 141.49560547 C7.00181969 146.98380511 0.93317378 150.63863856 -3.375 153.6875 C-28.16509966 169.37531264 -57.14238106 175.24963868 -86.23852539 169.5715332 C-102.239211 165.86758855 -116.87481904 159.38669503 -129.4375 148.75 C-130.23929687 148.08226562 -131.04109375 147.41453125 -131.8671875 146.7265625 C-138.51256662 140.99207647 -143.99401772 134.59488942 -149.4375 127.75 C-149.98019531 128.83539063 -150.52289063 129.92078125 -151.08203125 131.0390625 C-155.39453125 139.6640625 -155.39453125 139.6640625 -156.44677734 141.76831055 C-157.32826602 143.53150512 -158.20910114 145.29502639 -159.08984375 147.05859375 C-160.11473935 149.10541424 -161.14898344 151.14755675 -162.1875 153.1875 C-164.14167002 157.08838137 -165.978108 161.04186251 -167.8125 165 C-170.32734397 170.42163751 -172.93757931 175.78048015 -175.63671875 181.11328125 C-178.65828266 187.15462222 -181.51235547 193.28056171 -184.39160156 199.390625 C-186.54519863 203.92938871 -188.73888204 208.44254681 -191.08984375 212.8828125 C-191.66013306 213.96199951 -191.66013306 213.96199951 -192.24194336 215.06298828 C-193.4375 216.75 -193.4375 216.75 -196.4375 217.9375 C-199.74063607 217.731054 -201.54045494 217.35654317 -204.4375 215.75 C-205.93715148 213.46004231 -207.10190459 211.37918605 -208.2578125 208.92578125 C-208.76876465 207.89099892 -208.76876465 207.89099892 -209.29003906 206.83531189 C-210.39642507 204.58494653 -211.47951257 202.32420593 -212.5625 200.0625 C-213.32140429 198.50747863 -214.08166624 196.95311915 -214.84326172 195.39941406 C-217.06242742 190.85965437 -219.25229106 186.3061765 -221.4375 181.75 C-222.02057596 180.53877581 -222.60388938 179.32766589 -223.1875 178.11669922 C-225.51547404 173.28106064 -227.83011169 168.43941699 -230.12890625 163.58984375 C-233.47569958 156.5431614 -236.94972233 149.55734261 -240.53515625 142.62890625 C-241.44247704 140.73963655 -242.13580633 138.8573144 -242.8125 136.875 C-244.20959798 133.04910092 -246.05148884 130.04104987 -248.4375 126.75 C-248.9221875 127.46285156 -249.406875 128.17570313 -249.90625 128.91015625 C-254.2315782 135.09038481 -258.566503 140.04605717 -264.4375 144.75 C-265.56434755 145.74791763 -266.68938852 146.74787945 -267.8125 147.75 C-285.7929531 162.94872381 -308.23145799 170.97972422 -331.78125 170.86352539 C-332.57245743 170.86367142 -333.36366486 170.86381744 -334.17884827 170.8639679 C-336.7650945 170.86327742 -339.35126653 170.85552601 -341.9375 170.84765625 C-343.74210572 170.84578899 -345.54671195 170.84436654 -347.35131836 170.84336853 C-352.07933983 170.8395676 -356.80733012 170.82975824 -361.53533936 170.81866455 C-366.36860736 170.80839809 -371.20188046 170.80385973 -376.03515625 170.79882812 C-385.50261779 170.7881336 -394.97005629 170.77108658 -404.4375 170.75 C-406.79134391 167.07740357 -406.71574904 163.54692155 -406.68473816 159.32832336 C-406.68715257 158.57832115 -406.68956699 157.82831893 -406.69205457 157.05558938 C-406.69769253 154.54128429 -406.68902786 152.02723315 -406.68041992 149.51293945 C-406.68149275 147.71103852 -406.68343145 145.90913793 -406.68617249 144.10723877 C-406.69102274 139.21290245 -406.68336363 134.31865721 -406.67321944 129.4243319 C-406.66444532 124.30919003 -406.66619624 119.19405106 -406.6665802 114.0789032 C-406.66564349 105.49163282 -406.65695726 96.90439776 -406.64331055 88.31713867 C-406.62756997 78.37527844 -406.62231295 68.43345687 -406.6230461 58.49158508 C-406.62365541 48.94052804 -406.61855983 39.38948365 -406.61025429 29.8384304 C-406.60671502 25.76706023 -406.60489013 21.69569453 -406.60436058 17.62432289 C-406.60335957 12.83666686 -406.59728294 8.04904356 -406.58719444 3.26139832 C-406.58426208 1.49929187 -406.58304555 -0.26281835 -406.58362198 -2.02492714 C-406.58410913 -4.41974487 -406.57849226 -6.81446947 -406.57121277 -9.20927429 C-406.57276137 -9.91567651 -406.57430997 -10.62207873 -406.5759055 -11.34988707 C-406.55167892 -16.13582108 -406.55167892 -16.13582108 -405.4375 -17.25 C-402.83903254 -17.36111764 -400.26690178 -17.40739307 -397.66748047 -17.41113281 C-396.85262177 -17.41609772 -396.03776306 -17.42106262 -395.19821167 -17.42617798 C-392.48369514 -17.44085879 -389.76923734 -17.44761691 -387.0546875 -17.453125 C-385.1639099 -17.45887851 -383.27313231 -17.46463622 -381.38235474 -17.47039795 C-377.40252409 -17.4809294 -373.42271373 -17.48675573 -369.44287109 -17.49023438 C-364.38068778 -17.49567607 -359.31877936 -17.51960093 -354.25668144 -17.54820633 C-350.34090444 -17.56699266 -346.42519094 -17.57204708 -342.50937271 -17.57357025 C-340.6461451 -17.57656936 -338.78291785 -17.58450336 -336.91973495 -17.59775543 C-307.53327148 -17.79157566 -283.19490981 -9.13994821 -261.4375 10.75 C-260.65632812 11.46027344 -259.87515625 12.17054687 -259.0703125 12.90234375 C-255.58949454 16.20842185 -255.58949454 16.20842185 -254.4375 17.75 C-254.4375 18.74 -254.4375 19.73 -254.4375 20.75 C-253.85871094 20.95753906 -253.27992188 21.16507813 -252.68359375 21.37890625 C-244.84463063 26.164082 -239.16711362 41.122886 -236.57421875 49.55859375 C-235.14330527 53.5759694 -233.17092289 57.14242649 -231.125 60.875 C-226.21292819 70.01930345 -221.82802369 79.36937593 -217.49389648 88.79858398 C-213.46870341 97.54944286 -209.36332573 106.25751301 -205.1875 114.9375 C-204.62635498 116.10796875 -204.06520996 117.2784375 -203.48706055 118.484375 C-202.97054932 119.55558594 -202.45403809 120.62679687 -201.921875 121.73046875 C-201.46522461 122.67817139 -201.00857422 123.62587402 -200.53808594 124.60229492 C-199.61441503 126.67535583 -199.61441503 126.67535583 -198.4375 127.75 C-196.86583499 124.83818745 -195.30701066 121.91967105 -193.75 119 C-193.31494141 118.19433594 -192.87988281 117.38867188 -192.43164062 116.55859375 C-190.1094484 112.18943208 -188.0059995 107.8176226 -186.1484375 103.23046875 C-182.75513181 94.89919843 -178.71695199 86.88117487 -174.75 78.8125 C-173.59018833 76.44870484 -172.43142135 74.08441191 -171.27470398 71.71910095 C-170.56099231 70.26011411 -169.84544889 68.80202139 -169.12776184 67.34498596 C-167.42039298 63.85917529 -165.83800663 60.36970089 -164.4375 56.75 C-164.12425781 56.13382812 -163.81101563 55.51765625 -163.48828125 54.8828125 C-162.3128698 52.49703313 -161.34707922 50.05078488 -160.38330078 47.57324219 C-155.96722292 36.22736282 -150.98301783 26.40361048 -143.4375 16.75 C-142.88191406 16.0384375 -142.32632812 15.326875 -141.75390625 14.59375 C-136.99115574 8.83733212 -131.34216807 4.29142064 -125.4375 -0.25 C-124.24833984 -1.18005859 -124.24833984 -1.18005859 -123.03515625 -2.12890625 C-87.81779702 -28.32218342 -34.56342194 -26.02870762 0 0 Z M-362.4375 21.75 C-362.4375 57.39 -362.4375 93.03 -362.4375 129.75 C-325.07313495 130.90948794 -325.07313495 130.90948794 -295.4375 113.75 C-283.24498374 100.32255042 -280.61308892 85.63820878 -281.26269531 68.1953125 C-282.16634882 55.55426008 -289.06986657 43.03043137 -298.28125 34.4921875 C-317.8343667 18.69383596 -336.88267442 21.75 -362.4375 21.75 Z " fill="#12ABC5" transform="translate(406.4375,20.25)"/>
<path d="M0 0 C0.82516113 0.61814575 0.82516113 0.61814575 1.66699219 1.2487793 C3.7487754 2.90194037 5.3559281 4.32856013 6.53515625 6.734375 C6.58428348 10.35575382 5.55545512 12.66587204 3.10009766 15.34667969 C1.23014674 17.15311114 -0.68363707 18.89559264 -2.625 20.625 C-3.93216344 21.80860072 -5.23815688 22.99349489 -6.54296875 24.1796875 C-7.1872583 24.76242432 -7.83154785 25.34516113 -8.49536133 25.94555664 C-11.06200534 28.33022866 -13.50880637 30.82192493 -15.94287109 33.34106445 C-17.4375 34.75 -17.4375 34.75 -19.875 36.0625 C-23.50267772 35.62010028 -25.40963837 33.7023799 -28.2109375 31.44140625 C-42.19259616 20.82025151 -59.24864947 20.29092977 -76.0390625 22.1484375 C-82.96553299 23.55566238 -88.14897163 26.79981219 -93.84375 30.91015625 C-96.4375 32.75 -96.4375 32.75 -98.71875 33.80859375 C-100.79646502 34.69333384 -100.79646502 34.69333384 -101.4375 37.75 C-102.0975 37.75 -102.7575 37.75 -103.4375 37.75 C-103.70820313 38.3171875 -103.97890625 38.884375 -104.2578125 39.46875 C-105.4806028 41.83335112 -106.87256104 44.01175292 -108.3125 46.25 C-116.711209 60.25469325 -117.85882307 74.96059405 -114.4375 90.75 C-110.92841796 101.65928328 -103.82510882 112.09475134 -94.4375 118.75 C-93.74527344 119.26175781 -93.05304688 119.77351562 -92.33984375 120.30078125 C-79.06943658 129.22895168 -62.80656048 130.37462503 -47.44921875 127.50390625 C-38.64601572 125.30025102 -28.9705003 121.2830003 -22.4375 114.75 C-18.42012347 114.18465878 -16.86354114 114.43629322 -13.55322266 116.8737793 C-12.55333962 117.84099155 -11.57014962 118.82566749 -10.6015625 119.82421875 C-10.07734711 120.34506546 -9.55313171 120.86591217 -9.01303101 121.40254211 C-7.9116917 122.50417966 -6.81777763 123.61328455 -5.73095703 124.72924805 C-4.06596501 126.43395234 -2.373569 128.10732258 -0.67578125 129.77929688 C0.39238727 130.85502381 1.45885426 131.93244355 2.5234375 133.01171875 C3.02958588 133.51088303 3.53573425 134.0100473 4.05722046 134.52433777 C6.27498889 136.8334295 7.49582246 138.28163296 7.95336914 141.49560547 C7.00181969 146.98380511 0.93317378 150.63863856 -3.375 153.6875 C-28.16509966 169.37531264 -57.14238106 175.24963868 -86.23852539 169.5715332 C-102.239211 165.86758855 -116.87481904 159.38669503 -129.4375 148.75 C-130.23929687 148.08226562 -131.04109375 147.41453125 -131.8671875 146.7265625 C-138.53225996 140.97508252 -143.97031797 134.61754795 -149.4375 127.75 C-150.16195313 126.86957031 -150.88640625 125.98914063 -151.6328125 125.08203125 C-155.81255943 119.68092969 -157.44171011 112.84912625 -159.47265625 106.421875 C-160.37897383 103.57873808 -160.37897383 103.57873808 -162.4375 100.75 C-164.58692081 93.00119134 -164.71869969 85.17169998 -164.625 77.1875 C-164.62435547 76.10919922 -164.62371094 75.03089844 -164.62304688 73.91992188 C-164.57848214 66.03196429 -164.57848214 66.03196429 -163.4375 63.75 C-163.3580899 62.1882681 -163.29906214 60.62547966 -163.25 59.0625 C-162.61278802 51.35526935 -159.55949341 44.71737554 -156.4375 37.75 C-156.03273437 36.82832031 -155.62796875 35.90664063 -155.2109375 34.95703125 C-152.09805388 28.2971544 -147.95430845 22.52872988 -143.4375 16.75 C-142.88191406 16.0384375 -142.32632812 15.326875 -141.75390625 14.59375 C-136.99115574 8.83733212 -131.34216807 4.29142064 -125.4375 -0.25 C-124.64472656 -0.87003906 -123.85195313 -1.49007813 -123.03515625 -2.12890625 C-87.81779702 -28.32218342 -34.56342194 -26.02870762 0 0 Z " fill="#F36737" transform="translate(406.4375,20.25)"/>
<path d="M0 0 C0.7811618 -0.03220139 1.56232361 -0.06440277 2.36715698 -0.09757996 C5.92149565 -0.20908014 9.47571198 -0.29050574 13.03125 -0.35253906 C14.90353995 -0.39430078 16.77549601 -0.45576914 18.64648438 -0.53710938 C34.20996878 -1.20192265 34.20996878 -1.20192265 38.48486328 2.38012695 C40.07225159 4.99496203 41.05537198 7.36099262 41.96923828 10.2722168 C42.70257927 11.86333447 43.44982566 13.44822548 44.21923828 15.0222168 C45.22925286 17.34347838 46.07065386 19.60523727 46.80908203 22.0300293 C48.25267142 26.06430267 50.22616018 29.64702835 52.28173828 33.3972168 C57.19381009 42.54152025 61.57871459 51.89159273 65.9128418 61.32080078 C69.93803488 70.07165965 74.04341256 78.77972981 78.21923828 87.4597168 C78.7803833 88.63018555 79.34152832 89.8006543 79.91967773 91.0065918 C80.43618896 92.07780273 80.9527002 93.14901367 81.48486328 94.25268555 C81.94151367 95.20038818 82.39816406 96.14809082 82.86865234 97.12451172 C83.79232325 99.19757263 83.79232325 99.19757263 84.96923828 100.2722168 C86.54090329 97.36040424 88.09972762 94.44188785 89.65673828 91.5222168 C90.09179688 90.71655273 90.52685547 89.91088867 90.97509766 89.08081055 C93.29728988 84.71164887 95.40073878 80.33983939 97.25830078 75.75268555 C100.65160647 67.42141523 104.68978629 59.40339167 108.65673828 51.3347168 C109.81654996 48.97092164 110.97531694 46.60662871 112.1320343 44.24131775 C112.84574597 42.78233091 113.56128939 41.32423819 114.27897644 39.86720276 C115.98569491 36.38271996 117.59104223 32.90013461 118.96923828 29.2722168 C119.62923828 29.6022168 120.28923828 29.9322168 120.96923828 30.2722168 C121.09423828 36.0222168 121.09423828 36.0222168 119.96923828 38.2722168 C119.72406916 42.07913694 119.78401797 45.89580231 119.78173828 49.7097168 C119.76949219 50.75321289 119.75724609 51.79670898 119.74462891 52.87182617 C119.72791609 61.8466087 119.90053112 70.60450418 124.96923828 78.2722168 C126.19151459 81.61449158 127.10739484 85.05425792 128.07470703 88.47729492 C128.96406018 91.49373155 129.69057596 93.92832216 131.68798828 96.39331055 C132.96923828 98.2722168 132.96923828 98.2722168 132.86767578 101.0847168 C131.84220226 104.72291851 130.35156897 107.94635954 128.59423828 111.2722168 C128.29001953 111.86260742 127.98580078 112.45299805 127.67236328 113.0612793 C126.7758778 114.80061437 125.87262328 116.53645522 124.96923828 118.2722168 C123.9651629 120.27017391 122.96497617 122.27009141 121.96923828 124.2722168 C121.48068359 125.23901367 120.99212891 126.20581055 120.48876953 127.2019043 C118.81976881 130.57422967 117.23325873 133.98112627 115.65673828 137.3972168 C113.12149689 142.86059562 110.49010411 148.26131478 107.77001953 153.63549805 C104.74845562 159.67683901 101.89438281 165.8027785 99.01513672 171.9128418 C96.86153965 176.4516055 94.66785624 180.96476361 92.31689453 185.4050293 C91.93670166 186.1244873 91.55650879 186.84394531 91.16479492 187.58520508 C89.96923828 189.2722168 89.96923828 189.2722168 86.96923828 190.4597168 C83.66610221 190.25327079 81.86628334 189.87875997 78.96923828 188.2722168 C77.4695868 185.98225911 76.30483369 183.90140285 75.14892578 181.44799805 C74.63797363 180.41321571 74.63797363 180.41321571 74.11669922 179.35752869 C73.01031321 177.10716332 71.92722571 174.84642273 70.84423828 172.5847168 C70.08533399 171.02969543 69.32507204 169.47533595 68.56347656 167.92163086 C66.34431086 163.38187117 64.15444722 158.82839329 61.96923828 154.2722168 C61.38616232 153.0609926 60.8028489 151.84988268 60.21923828 150.63891602 C57.89126424 145.80327744 55.57662659 140.96163378 53.27783203 136.11206055 C49.92911209 129.06132171 46.45576114 122.06953652 42.86376953 115.1394043 C41.96923828 113.2722168 41.96923828 113.2722168 40.71923828 109.5847168 C39.52160632 106.29122892 37.97324897 103.64430142 35.96923828 100.7722168 C33.55700618 97.31170606 31.95459793 94.09142175 30.61767578 90.10424805 C29.9307567 88.02804295 29.9307567 88.02804295 28.40673828 85.2722168 C26.66567033 81.63868369 25.84953609 78.19969931 24.96923828 74.2722168 C24.30923828 74.2722168 23.64923828 74.2722168 22.96923828 74.2722168 C22.29865941 72.4820107 21.63289138 70.69000191 20.96923828 68.8972168 C20.59798828 67.89948242 20.22673828 66.90174805 19.84423828 65.8737793 C18.96923828 63.2722168 18.96923828 63.2722168 18.96923828 61.2722168 C18.30923828 61.2722168 17.64923828 61.2722168 16.96923828 61.2722168 C16.96923828 60.2822168 16.96923828 59.2922168 16.96923828 58.2722168 C16.30923828 58.2722168 15.64923828 58.2722168 14.96923828 58.2722168 C14.15591085 56.16836982 13.34360411 54.06412823 12.53173828 51.9597168 C12.07927734 50.78795898 11.62681641 49.61620117 11.16064453 48.40893555 C10.38939073 46.37838864 9.65611186 44.33283754 8.96923828 42.2722168 C8.30923828 42.2722168 7.64923828 42.2722168 6.96923828 42.2722168 C6.96923828 40.9522168 6.96923828 39.6322168 6.96923828 38.2722168 C6.30923828 38.2722168 5.64923828 38.2722168 4.96923828 38.2722168 C2.96923828 35.2722168 2.96923828 35.2722168 2.96923828 32.2722168 C1.48423828 32.7672168 1.48423828 32.7672168 -0.03076172 33.2722168 C0.18580078 31.9109668 0.18580078 31.9109668 0.40673828 30.5222168 C0.47077297 25.29271747 -2.66873626 21.39092307 -5.40185547 17.1394043 C-8.36740814 11.91946266 -8.1297933 7.11507987 -8.03076172 1.2722168 C-5.31665083 0.52231934 -2.81144345 0.11491212 0 0 Z " fill="#935DD4" transform="translate(123.03076171875,47.727783203125)"/>
<path d="M0 0 C0.8148587 -0.0049649 1.62971741 -0.00992981 2.4692688 -0.01504517 C5.18378533 -0.02972597 7.89824313 -0.03648409 10.61279297 -0.04199219 C12.50357057 -0.0477457 14.39434816 -0.05350341 16.28512573 -0.05926514 C20.26495638 -0.06979658 24.24476674 -0.07562292 28.22460938 -0.07910156 C33.28679269 -0.08454325 38.34870111 -0.10846811 43.41079903 -0.13707352 C47.32657603 -0.15585985 51.24228953 -0.16091426 55.15810776 -0.16243744 C57.02133537 -0.16543655 58.88456262 -0.17337055 60.74774551 -0.18662262 C71.79971092 -0.25951654 82.56199851 -0.07996686 93.22998047 3.16113281 C94.21998047 4.15113281 94.21998047 4.15113281 95.22998047 5.16113281 C90.60998047 4.50113281 85.98998047 3.84113281 81.22998047 3.16113281 C52.18998047 3.16113281 23.14998047 3.16113281 -6.77001953 3.16113281 C-7.10001953 62.56113281 -7.43001953 121.96113281 -7.77001953 183.16113281 C-8.10001953 183.16113281 -8.43001953 183.16113281 -8.77001953 183.16113281 C-8.79334584 159.4485527 -8.81099738 135.73597431 -8.8218317 112.02338505 C-8.82699523 101.01403991 -8.83403901 90.0047019 -8.84545898 78.99536133 C-8.85540409 69.40331389 -8.86187254 59.8112716 -8.86410803 50.21921915 C-8.86541543 45.13697989 -8.86850314 40.05475538 -8.87574959 34.97252083 C-8.88250707 30.1947761 -8.88463705 25.41705226 -8.88312721 20.63930321 C-8.88340366 18.88042208 -8.88541039 17.12154029 -8.88922501 15.36266327 C-8.89415801 12.97201971 -8.89301929 10.58145635 -8.89027405 8.19081116 C-8.89318689 7.48557141 -8.89609973 6.78033166 -8.89910084 6.05372101 C-8.8767462 -1.08666742 -6.35198933 0.00913849 0 0 Z " fill="#0A8397" transform="translate(8.77001953125,2.8388671875)"/>
<path d="M0 0 C2.88575819 0.39803561 3.82189513 0.79009069 5.75 3.0625 C6.1625 3.701875 6.575 4.34125 7 5 C7.33 4.01 7.66 3.02 8 2 C8.66 2 9.32 2 10 2 C10 2.66 10 3.32 10 4 C11.29212402 3.95399658 12.58424805 3.90799316 13.91552734 3.8605957 C18.69716912 3.6943657 23.47924723 3.54810606 28.26171875 3.40795898 C30.33383399 3.34442408 32.40578921 3.27543117 34.47753906 3.20092773 C37.45092285 3.0949387 40.42432472 3.0084191 43.3984375 2.92578125 C44.32868744 2.88842361 45.25893738 2.85106598 46.21737671 2.81257629 C47.50848862 2.78220528 47.50848862 2.78220528 48.82568359 2.7512207 C49.58513275 2.72679398 50.34458191 2.70236725 51.12704468 2.67720032 C51.74511993 2.78372421 52.36319519 2.89024811 53 3 C53.99 4.485 53.99 4.485 55 6 C40.48 6.33 25.96 6.66 11 7 C12.22827425 18.03368709 12.22827425 18.03368709 16.625 26.5 C19.15382289 30.25710829 20.44786768 32.42179704 20 37 C16.87366116 35.43683058 16.36419836 32.69583989 14.9375 29.5625 C9.6909971 18.65489387 2.68072461 11.67634536 -8 6 C-9.6713853 5.00790677 -11.33933856 4.00994127 -13 3 C-11 2 -11 2 -8.94140625 2.55859375 C-8.15636719 2.84863281 -7.37132813 3.13867188 -6.5625 3.4375 C-3.75653648 4.46835645 -2.02703646 5 1 5 C0.67 3.35 0.34 1.7 0 0 Z " fill="#23A5CB" transform="translate(104,42)"/>
<path d="M0 0 C12.16948787 -0.253531 23.77771192 1.24517836 35.4375 4.62109375 C36.17774414 4.83467529 36.91798828 5.04825684 37.68066406 5.26831055 C39.47558839 5.81930564 41.24169642 6.46252146 43 7.12109375 C43.495 8.11109375 43.495 8.11109375 44 9.12109375 C42.08364783 9.17533013 40.16685075 9.21399338 38.25 9.24609375 C37.18265625 9.26929688 36.1153125 9.2925 35.015625 9.31640625 C32.03518242 9.1233724 30.55953305 8.53285413 28 7.12109375 C26.66216607 7.43587821 25.32796291 7.76697031 24 8.12109375 C23.34 7.46109375 22.68 6.80109375 22 6.12109375 C16.43192472 2.40904356 10.54358944 2.96374318 4.0625 2.99609375 C3.13477783 2.99802734 2.20705566 2.99996094 1.2512207 3.00195312 C-6.20130991 3.04838232 -13.57783248 3.42253681 -21 4.12109375 C-21 4.78109375 -21 5.44109375 -21 6.12109375 C-24.46342242 8.1991472 -27.05369705 9.31290997 -31.0625 9.18359375 C-34.77073851 9.12473282 -36.74141168 9.49179959 -40 11.12109375 C-40 10.46109375 -40 9.80109375 -40 9.12109375 C-27.23512871 3.35235384 -13.95335214 0.56322125 0 0 Z " fill="#D8674B" transform="translate(340,-0.12109375)"/>
<path d="M0 0 C0.66 0 1.32 0 2 0 C2.66 1.98 3.32 3.96 4 6 C4.66 6 5.32 6 6 6 C6 7.32 6 8.64 6 10 C6.66 10 7.32 10 8 10 C10.45855991 15.26322777 12.56176509 20.36691325 14 26 C12.68 26 11.36 26 10 26 C10 25.34 10 24.68 10 24 C9.34 24 8.68 24 8 24 C8 24.66 8 25.32 8 26 C7.01 26.33 6.02 26.66 5 27 C5.33 24.36 5.66 21.72 6 19 C4.55052692 20.44947308 3.89356259 22.16031232 3 24 C2.34 25.32 1.68 26.64 1 28 C0.67 18.76 0.34 9.52 0 0 Z " fill="#18ABCA" transform="translate(124,80)"/>
<path d="M0 0 C3.15806731 1.08558564 5.63022076 2.44209367 8.3125 4.375 C20.46213935 12.11494038 36.27323319 12.25124281 49.9609375 9.77734375 C54.38247944 8.64638379 58.45298893 6.90717301 62.6015625 5.0234375 C65 4 65 4 67 4 C67 4.99 67 5.98 67 7 C66.36191406 7.20496094 65.72382813 7.40992188 65.06640625 7.62109375 C64.24011719 7.89050781 63.41382813 8.15992188 62.5625 8.4375 C61.73878906 8.70433594 60.91507812 8.97117188 60.06640625 9.24609375 C58.03780412 9.82155494 58.03780412 9.82155494 57 11 C57.66 11.66 58.32 12.32 59 13 C54.35930901 13.04998673 49.71877981 13.0859928 45.07788086 13.10986328 C43.50395981 13.11982989 41.93005682 13.1334081 40.35620117 13.15087891 C31.35277556 13.24821324 22.8141606 13.13932425 14 11 C14 10.34 14 9.68 14 9 C12.35 9 10.7 9 9 9 C8.67 8.01 8.34 7.02 8 6 C5.60931266 4.89363605 5.60931266 4.89363605 3 4 C2.01 3.34 1.02 2.68 0 2 C0 1.34 0 0.68 0 0 Z " fill="#CF5F39" transform="translate(309,138)"/>
<path d="M0 0 C6.16562746 0.83527217 10.1294118 4.37032599 15 8 C15.66515625 8.43828125 16.3303125 8.8765625 17.015625 9.328125 C18.6875 10.5 18.6875 10.5 21 13 C21 16.75 21 16.75 20 20 C19.34 20.33 18.68 20.66 18 21 C18.33 19.35 18.66 17.7 19 16 C18.21625 16.474375 17.4325 16.94875 16.625 17.4375 C15.11051322 18.33898023 13.5764103 19.21179485 12 20 C12 18.35 12 16.7 12 15 C12.99 14.67 13.98 14.34 15 14 C14.67 13.01 14.34 12.02 14 11 C9.6835078 10.23826608 6.25566547 9.83936396 2 11 C2.66 10.67 3.32 10.34 4 10 C3.71125 8.72125 3.4225 7.4425 3.125 6.125 C2.96257812 5.40570312 2.80015625 4.68640625 2.6328125 3.9453125 C2.09525572 1.79280036 2.09525572 1.79280036 0 0 Z " fill="#EB673B" transform="translate(392,13)"/>
<path d="M0 0 C0.99 0.495 0.99 0.495 2 1 C0.71034824 2.37562854 -0.62689293 3.70766393 -2 5 C-2.66 5 -3.32 5 -4 5 C-4.0928125 5.928125 -4.0928125 5.928125 -4.1875 6.875 C-4.455625 7.57625 -4.72375 8.2775 -5 9 C-5.7425 9.28875 -6.485 9.5775 -7.25 9.875 C-11.07792402 11.44096892 -12.51288346 13.73121827 -15 17 C-15.57359756 16.81591583 -16.14719513 16.63183167 -16.73817444 16.44216919 C-19.28700133 15.94389349 -20.70395155 16.23910857 -23.18920898 16.92529297 C-27.85945803 18.06008641 -32.18417681 18.26010582 -36.97265625 18.1953125 C-38.18543495 18.19106766 -38.18543495 18.19106766 -39.42271423 18.18673706 C-41.96946918 18.17566777 -44.5158539 18.15058958 -47.0625 18.125 C-48.80403133 18.11495302 -50.54556825 18.1058302 -52.28710938 18.09765625 C-56.52487917 18.07577213 -60.76237713 18.04133646 -65 18 C-65 17.67 -65 17.34 -65 17 C-64.11852295 16.98018066 -63.2370459 16.96036133 -62.32885742 16.93994141 C-59.00553707 16.86105858 -55.68260052 16.77434786 -52.35961914 16.68261719 C-50.93131152 16.64473019 -49.50292147 16.60981351 -48.07446289 16.578125 C-28.40019096 16.13647175 -15.21678644 12.49779952 0 0 Z " fill="#148B9F" transform="translate(111,133)"/>
<path d="M0 0 C1.65 0 3.3 0 5 0 C5 0.66 5 1.32 5 2 C6.22976563 2.18175781 6.22976563 2.18175781 7.484375 2.3671875 C8.56203125 2.53476563 9.6396875 2.70234375 10.75 2.875 C11.81734375 3.03742188 12.8846875 3.19984375 13.984375 3.3671875 C16.73072766 3.94349466 18.52827172 4.76413586 21 6 C25.5943357 6.94499163 30.12949084 7.20331039 34.8046875 7.31640625 C35.5286673 7.33718735 36.25264709 7.35796844 36.99856567 7.37937927 C39.29062239 7.44428853 41.58278474 7.50348437 43.875 7.5625 C45.43751053 7.60574112 47.00001072 7.64935711 48.5625 7.69335938 C52.37489426 7.79990896 56.1873938 7.90133795 60 8 C59.67 8.66 59.34 9.32 59 10 C39.25839566 10.52730811 19.20706128 11.04651479 1 2 C0.67 1.34 0.34 0.68 0 0 Z " fill="#CE6641" transform="translate(298,181)"/>
<path d="M0 0 C4.27974528 0.56725002 5.63377941 2.1561481 8.61083984 5.23828125 C9.3305748 5.97075073 9.3305748 5.97075073 10.06484985 6.71801758 C11.58708244 8.27371163 13.08707981 9.84897546 14.58740234 11.42578125 C15.61855285 12.4870407 16.65109137 13.54695339 17.68505859 14.60546875 C20.21043854 17.19683348 22.71629769 19.80616977 25.21240234 22.42578125 C24.55240234 23.08578125 23.89240234 23.74578125 23.21240234 24.42578125 C22.71740234 22.94078125 22.71740234 22.94078125 22.21240234 21.42578125 C21.55240234 21.42578125 20.89240234 21.42578125 20.21240234 21.42578125 C20.21240234 20.76578125 20.21240234 20.10578125 20.21240234 19.42578125 C19.57302734 19.15765625 18.93365234 18.88953125 18.27490234 18.61328125 C16.21240234 17.42578125 16.21240234 17.42578125 15.21240234 14.42578125 C14.22240234 14.09578125 13.23240234 13.76578125 12.21240234 13.42578125 C12.21240234 12.76578125 12.21240234 12.10578125 12.21240234 11.42578125 C11.06771484 11.20921875 11.06771484 11.20921875 9.89990234 10.98828125 C7.21240234 10.42578125 7.21240234 10.42578125 4.21240234 9.42578125 C4.21240234 7.42578125 4.21240234 7.42578125 5.21240234 6.42578125 C4.55240234 6.09578125 3.89240234 5.76578125 3.21240234 5.42578125 C2.88240234 6.08578125 2.55240234 6.74578125 2.21240234 7.42578125 C1.77927734 6.76578125 1.34615234 6.10578125 0.89990234 5.42578125 C0.06458984 4.43578125 0.06458984 4.43578125 -0.78759766 3.42578125 C-1.77759766 3.42578125 -2.76759766 3.42578125 -3.78759766 3.42578125 C-3.78759766 4.08578125 -3.78759766 4.74578125 -3.78759766 5.42578125 C-5.76759766 6.08578125 -7.74759766 6.74578125 -9.78759766 7.42578125 C-2.78759766 0.42578125 -2.78759766 0.42578125 0 0 Z " fill="#D66A42" transform="translate(386.78759765625,134.57421875)"/>
<path d="M0 0 C3.01250425 3.63383325 4.94345372 7.66139954 7 11.875 C7.34289062 12.56980469 7.68578125 13.26460937 8.0390625 13.98046875 C8.37679687 14.66496094 8.71453125 15.34945312 9.0625 16.0546875 C9.39338623 16.72064941 9.72427246 17.38661133 10.06518555 18.07275391 C10.92547898 19.84636487 11.725567 21.64884635 12.51953125 23.453125 C13.00808594 24.29359375 13.49664062 25.1340625 14 26 C17.59385054 26.97873538 17.59385054 26.97873538 21 27 C24.25633172 21.45217559 27.16541556 15.77372322 30 10 C30.66 10 31.32 10 32 10 C30.60948765 14.49190019 28.87783154 18.61913829 26.75 22.8125 C26.18796875 23.95332031 25.6259375 25.09414062 25.046875 26.26953125 C23 29 23 29 20.078125 30.01171875 C16.69890408 29.9988537 14.97208831 29.58072528 12 28 C10.33081055 25.63330078 10.33081055 25.63330078 8.88671875 22.6953125 C8.36142578 21.63699219 7.83613281 20.57867187 7.29492188 19.48828125 C6.76447266 18.37839844 6.23402344 17.26851562 5.6875 16.125 C5.13771484 15.02285156 4.58792969 13.92070312 4.02148438 12.78515625 C0 4.56234472 0 4.56234472 0 0 Z " fill="#7C59AB" transform="translate(190,208)"/>
<path d="M0 0 C3.3 0.99 6.6 1.98 10 3 C10 2.34 10 1.68 10 1 C15.08938811 2.59043379 18.87456643 5.7446951 23 9 C20.59454362 10.20272819 19.05003047 10.10071472 16.375 10.0625 C15.14910156 10.04896484 15.14910156 10.04896484 13.8984375 10.03515625 C12.95871094 10.01775391 12.95871094 10.01775391 12 10 C12 9.34 12 8.68 12 8 C10.9275 7.71125 9.855 7.4225 8.75 7.125 C5.90599636 6.27179891 3.56491017 5.4363497 1 4 C1 3.34 1 2.68 1 2 C0.34 1.67 -0.32 1.34 -1 1 C-0.67 0.67 -0.34 0.34 0 0 Z " fill="#1BA8CC" transform="translate(115,16)"/>
<path d="M0 0 C0.66 0.33 1.32 0.66 2 1 C2.125 6.75 2.125 6.75 1 9 C0.84876169 10.5195764 0.75118307 12.04472502 0.68359375 13.5703125 C0.64169922 14.46621094 0.59980469 15.36210938 0.55664062 16.28515625 C0.51732422 17.22230469 0.47800781 18.15945312 0.4375 19.125 C0.39431641 20.06988281 0.35113281 21.01476562 0.30664062 21.98828125 C0.20040928 24.32537092 0.09836824 26.6625683 0 29 C-0.33 29 -0.66 29 -1 29 C-1.33 25.04 -1.66 21.08 -2 17 C-2.66 18.32 -3.32 19.64 -4 21 C-4.99 21 -5.98 21 -7 21 C-7.66 21.66 -8.32 22.32 -9 23 C-8.47450239 17.62824662 -6.55236924 13.84747303 -3.9375 9.25 C-1.13991037 4.87315626 -1.13991037 4.87315626 0 0 Z " fill="#845ABE" transform="translate(242,77)"/>
<path d="M0 0 C6.18777027 -0.45001966 11.62906102 0.40688718 17.625 1.8125 C18.34099365 1.97782227 19.0569873 2.14314453 19.79467773 2.31347656 C24.44297767 3.45078667 28.64909705 5.00726361 33 7 C30.55028376 8.22485812 28.85765539 8.16722808 26.125 8.1875 C24.82949219 8.20876953 24.82949219 8.20876953 23.5078125 8.23046875 C20.86191255 7.98730972 19.32038028 7.22520079 17 6 C15.66216607 6.31478446 14.32796291 6.64587656 13 7 C12.34 6.34 11.68 5.68 11 5 C8.30669878 3.20446585 6.8539399 2.57303539 3.8125 1.875 C2.554375 1.58625 1.29625 1.2975 0 1 C0 0.67 0 0.34 0 0 Z " fill="#DF6440" transform="translate(351,1)"/>
<path d="M0 0 C1.32 0 2.64 0 4 0 C4.33 0.66 4.66 1.32 5 2 C0.27095172 8.95522261 -4.4322186 14.75099776 -11 20 C-12.33695158 21.14160951 -13.6704964 22.28722526 -15 23.4375 C-15.99 24.283125 -16.98 25.12875 -18 26 C-18.66 25.67 -19.32 25.34 -20 25 C-18.25 21.125 -18.25 21.125 -16 20 C-15.34 20.33 -14.68 20.66 -14 21 C-14 19.68 -14 18.36 -14 17 C-13.34 17 -12.68 17 -12 17 C-11.67 15.35 -11.34 13.7 -11 12 C-9.9275 11.814375 -8.855 11.62875 -7.75 11.4375 C-4.51926038 10.53315504 -3.252526 9.45445784 -1.5625 6.5625 C0.20083075 3.19045449 0.20083075 3.19045449 0 0 Z " fill="#1C9AAA" transform="translate(153,145)"/>
<path d="M0 0 C4.49861899 0.09464297 8.99677742 0.20095815 13.49487305 0.31738281 C15.02019 0.35530284 16.5455852 0.39021483 18.07104492 0.421875 C41.92286498 0.92286498 41.92286498 0.92286498 46 5 C44.70006104 4.84152588 43.40012207 4.68305176 42.06079102 4.51977539 C37.37852888 4.00094634 32.73477984 3.78672029 28.02734375 3.68359375 C27.21882462 3.66281265 26.41030548 3.64203156 25.57728577 3.62062073 C23.03076486 3.55598384 20.48415373 3.49664591 17.9375 3.4375 C16.19595475 3.3942328 14.45441814 3.35061612 12.71289062 3.30664062 C8.47534948 3.20039252 4.23771894 3.09889177 0 3 C0 2.01 0 1.02 0 0 Z " fill="#1A99AF" transform="translate(44,39)"/>
<path d="M0 0 C8.14578713 1.66382035 14.10753072 5.09499355 20 11 C20 11.66 20 12.32 20 13 C20.66 13 21.32 13 22 13 C25.02794108 16.40330568 27.41925952 20.09551168 29.75 24 C30.67039062 25.5159375 30.67039062 25.5159375 31.609375 27.0625 C33.01965362 30.0415155 33.30969465 31.7601175 33 35 C29.87366116 33.43683058 29.36419836 30.69583989 27.9375 27.5625 C22.6909971 16.65489387 15.68072461 9.67634536 5 4 C3.31229363 3.03593309 1.63966346 2.0436865 0 1 C0 0.67 0 0.34 0 0 Z " fill="#1A8E97" transform="translate(91,44)"/>
<path d="M0 0 C0.33 0 0.66 0 1 0 C1.103125 1.051875 1.20625 2.10375 1.3125 3.1875 C1.74375035 6.90058129 1.74375035 6.90058129 3.4375 9.34375 C5.18555519 12.31544383 5.91411096 14.9611475 6.6875 18.3125 C6.93886719 19.38113281 7.19023437 20.44976562 7.44921875 21.55078125 C7.63097656 22.35902344 7.81273437 23.16726562 8 24 C7.34 24 6.68 24 6 24 C5.67 26.31 5.34 28.62 5 31 C3.68 31.33 2.36 31.66 1 32 C1 28.37 1 24.74 1 21 C1.66 20.67 2.32 20.34 3 20 C3.40729228 17.67843403 3.74438677 15.3431213 4 13 C3.34 13 2.68 13 2 13 C-0.24828052 8.50343896 -0.16682272 4.92127034 0 0 Z " fill="#965DCB" transform="translate(243,114)"/>
<path d="M0 0 C1.21043818 3.63131453 0.68837497 4.23958382 -0.9375 7.5625 C-2.53153297 10.64952238 -2.53153297 10.64952238 -3 14 C-2.34 13.67 -1.68 13.34 -1 13 C-1.75 17.75 -1.75 17.75 -4 20 C-4.69748583 21.31747324 -5.36959957 22.64914193 -6 24 C-6.66 23.34 -7.32 22.68 -8 22 C-9.32 24.64 -10.64 27.28 -12 30 C-13.24396013 25.02415946 -12.29200388 23.93906464 -9.9375 19.5 C-9.28884065 18.25792833 -8.64040758 17.01573847 -7.9921875 15.7734375 C-7.66057617 15.14791992 -7.32896484 14.52240234 -6.98730469 13.87792969 C-5.46540324 10.98315571 -4.01673663 8.05434746 -2.5625 5.125 C-1.70833333 3.41666667 -0.85416667 1.70833333 0 0 Z " fill="#8558C1" transform="translate(225,114)"/>
<path d="M0 0 C0.99 0.495 0.99 0.495 2 1 C2.33 1.99 2.66 2.98 3 4 C3.99 3.01 4.98 2.02 6 1 C6.99 1.33 7.98 1.66 9 2 C8.67 3.32 8.34 4.64 8 6 C8.66 6.33 9.32 6.66 10 7 C9.01 7.495 9.01 7.495 8 8 C7.34786708 10.02463255 7.34786708 10.02463255 7 12 C7.66 12 8.32 12 9 12 C9.19335938 12.61488281 9.38671875 13.22976562 9.5859375 13.86328125 C9.84632812 14.67152344 10.10671875 15.47976562 10.375 16.3125 C10.63023438 17.11300781 10.88546875 17.91351563 11.1484375 18.73828125 C11.98831811 21.22724528 11.98831811 21.22724528 14 24 C14 24.99 14 25.98 14 27 C13.34 27 12.68 27 12 27 C10 24 10 24 10 21 C9.01 21.33 8.02 21.66 7 22 C7.2165625 20.63875 7.2165625 20.63875 7.4375 19.25 C7.51330728 13.9651493 4.28071039 9.9706345 1.53125 5.671875 C0 3 0 3 0 0 Z " fill="#7F6AD3" transform="translate(116,59)"/>
<path d="M0 0 C1.134375 0.020625 2.26875 0.04125 3.4375 0.0625 C3.4375 0.7225 3.4375 1.3825 3.4375 2.0625 C-0.43897787 2.97352913 -4.02721752 3.18387137 -8.00512695 3.17602539 C-9.28607742 3.17594986 -10.56702789 3.17587433 -11.88679504 3.17579651 C-13.27479085 3.17069065 -14.66278625 3.16547467 -16.05078125 3.16015625 C-17.47853038 3.15828975 -18.90628015 3.15686694 -20.33403015 3.15586853 C-24.08063545 3.15206165 -27.8272016 3.14224707 -31.5737915 3.13116455 C-35.40140249 3.12091102 -39.22901984 3.11636248 -43.05664062 3.11132812 C-50.55861154 3.10062307 -58.06055027 3.08356873 -65.5625 3.0625 C-65.5625 2.7325 -65.5625 2.4025 -65.5625 2.0625 C-64.41951195 2.0470388 -64.41951195 2.0470388 -63.25343323 2.03126526 C-56.0869026 1.9334559 -48.92046173 1.8309656 -41.75407505 1.72316074 C-38.0693981 1.66789835 -34.38471327 1.61447321 -30.69995117 1.56518555 C-27.14672159 1.51759068 -23.59359125 1.46524993 -20.04047966 1.40955925 C-18.68207189 1.3891135 -17.32363688 1.37040415 -15.96518135 1.35342598 C-14.06860295 1.32943123 -12.17211201 1.29879668 -10.27563477 1.26782227 C-8.65347801 1.24450584 -8.65347801 1.24450584 -6.99855042 1.22071838 C-3.62556445 1.00164722 -3.80736278 0.06679584 0 0 Z " fill="#16B3CD" transform="translate(75.5625,185.9375)"/>
<path d="M0 0 C1.22589844 0.01353516 1.22589844 0.01353516 2.4765625 0.02734375 C3.41628906 0.04474609 3.41628906 0.04474609 4.375 0.0625 C4.375 0.7225 4.375 1.3825 4.375 2.0625 C2.63088699 3.29912862 0.82793515 4.45352135 -1 5.5625 C-5.05443147 8.00466507 -5.05443147 8.00466507 -8.625 11.0625 C-10.61321313 11.46014263 -12.61444339 11.80025349 -14.625 12.0625 C-14.4375 10.25 -14.4375 10.25 -13.625 8.0625 C-9.44642857 5.0625 -9.44642857 5.0625 -6.625 5.0625 C-6.625 3.7425 -6.625 2.4225 -6.625 1.0625 C-4.21954362 -0.14022819 -2.67503047 -0.03821472 0 0 Z " fill="#EF6C3B" transform="translate(316.625,43.9375)"/>
<path d="M0 0 C1.24668457 -0.01450195 1.24668457 -0.01450195 2.51855469 -0.02929688 C8.17188394 0.04755766 12.43797403 1.18978875 17.625 3.4375 C14.12818522 4.42313638 12.19398139 4.15420183 8.625 3.4375 C-2.6084611 2.74061637 -13.65367558 2.70834368 -24.375 6.4375 C-24.375 5.7775 -24.375 5.1175 -24.375 4.4375 C-16.15726964 1.3898649 -8.71907219 0.03240086 0 0 Z " fill="#CE603C" transform="translate(346.375,38.5625)"/>
<path d="M0 0 C0.99 0.99 1.98 1.98 3 3 C-11.52 3.33 -26.04 3.66 -41 4 C-40.67 6.97 -40.34 9.94 -40 13 C-40.66 13 -41.32 13 -42 13 C-42.66 10.69 -43.32 8.38 -44 6 C-43.34 6 -42.68 6 -42 6 C-42 4.68 -42 3.36 -42 2 C-28.14 2 -14.28 2 0 2 C0 1.34 0 0.68 0 0 Z " fill="#4F82C9" transform="translate(156,45)"/>
<path d="M0 0 C0.66 0.33 1.32 0.66 2 1 C0.11620471 2.99195579 -1.7805332 4.9679364 -3.6875 6.9375 C-4.48317383 7.78344727 -4.48317383 7.78344727 -5.29492188 8.64648438 C-7.72928624 11.14058774 -9.43597548 12.79490018 -12.75 14 C-15 14 -15 14 -17.3125 12.0625 C-17.869375 11.381875 -18.42625 10.70125 -19 10 C-17.4221875 10.433125 -17.4221875 10.433125 -15.8125 10.875 C-12.1579822 11.409561 -12.1579822 11.409561 -10.421875 9.73046875 C-8.87406096 7.88293507 -8.87406096 7.88293507 -7 5 C-7.33 5 -7.66 5 -8 5 C-8.99 4.67 -9.98 4.34 -11 4 C-10.67 3.34 -10.34 2.68 -10 2 C-6.93090555 1.33280556 -4.14213983 1 -1 1 C-0.67 0.67 -0.34 0.34 0 0 Z " fill="#DB5F34" transform="translate(399,42)"/>
<path d="M0 0 C0.99 0.33 1.98 0.66 3 1 C2.38367054 5.95998472 0.20164371 9.93671966 -2.0625 14.3125 C-2.62807617 15.42334961 -2.62807617 15.42334961 -3.20507812 16.55664062 C-4.13128157 18.37387522 -5.06490629 20.18732404 -6 22 C-6.99 22 -7.98 22 -9 22 C-8.67 21.071875 -8.34 20.14375 -8 19.1875 C-6.85032996 16.07970709 -6.85032996 16.07970709 -7 13 C-6.34 12.34 -5.68 11.68 -5 11 C-4.01 11 -3.02 11 -2 11 C-2.061875 9.39125 -2.061875 9.39125 -2.125 7.75 C-2.0114175 4.34252515 -1.78726636 2.79260369 0 0 Z " fill="#855AC4" transform="translate(237,179)"/>
<path d="M0 0 C0.33 1.32 0.66 2.64 1 4 C1.66 4 2.32 4 3 4 C3.33 3.34 3.66 2.68 4 2 C4 3.65 4 5.3 4 7 C4.66 7 5.32 7 6 7 C6.33 11.29 6.66 15.58 7 20 C2.44119827 14.30149784 -0.31895648 9.32121787 -1 2 C-0.67 1.34 -0.34 0.68 0 0 Z " fill="#D26B64" transform="translate(250,128)"/>
<path d="M0 0 C0 3.26115629 -0.31763469 4.27617044 -2 7 C-3.1446875 8.0828125 -3.1446875 8.0828125 -4.3125 9.1875 C-10.11794544 15.26296616 -12.57296528 21.82698299 -14 30 C-14.99 29.67 -15.98 29.34 -17 29 C-15.17834937 18.14679728 -7.9266052 7.45888626 0 0 Z " fill="#CF5D36" transform="translate(266,34)"/>
<path d="M0 0 C1.85570984 2.78356477 2.53214574 4.52927549 3.375 7.6875 C5.95839712 16.51197532 10.16702176 22.92177922 16 30 C15.34 30.33 14.68 30.66 14 31 C8.01860796 25.33341807 4.43509076 19.90384208 2 12 C2 11.01 2 10.02 2 9 C1.34 9 0.68 9 0 9 C0 6.03 0 3.06 0 0 Z " fill="#CD6343" transform="translate(289,103)"/>
<path d="M0 0 C0.33 0.99 0.66 1.98 1 3 C1.66 3 2.32 3 3 3 C3.67305018 4.60149886 4.33822227 6.20631029 5 7.8125 C5.37125 8.70582031 5.7425 9.59914063 6.125 10.51953125 C7 13 7 13 7 16 C7.66 16 8.32 16 9 16 C10.86610926 18.79916389 11.68785383 20.81938269 12.625 24 C12.88539063 24.86625 13.14578125 25.7325 13.4140625 26.625 C14 29 14 29 14 32 C13.34 31.34 12.68 30.68 12 30 C12 29.01 12 28.02 12 27 C11.34 27 10.68 27 10 27 C9.7525 26.175 9.505 25.35 9.25 24.5 C8.30760712 21.86129993 7.33532638 19.5926251 6.0625 17.125 C3.25687155 11.64983702 0.95465197 6.10977261 0 0 Z " fill="#3D91CE" transform="translate(139,106)"/>
<path d="M0 0 C3.02409632 2.59475632 4.44507811 5.57161109 6.171875 9.12890625 C6.45855042 9.71921127 6.74522583 10.3095163 7.04058838 10.91770935 C7.64203575 12.16098216 8.24026285 13.40581737 8.83544922 14.65209961 C9.75088909 16.56435721 10.68138325 18.46876558 11.61328125 20.37304688 C12.19623431 21.5828896 12.7782971 22.79316178 13.359375 24.00390625 C13.89014648 25.10549072 14.42091797 26.2070752 14.96777344 27.34204102 C15.3084082 28.21916748 15.64904297 29.09629395 16 30 C15.67 30.66 15.34 31.32 15 32 C11.86266246 29.43308747 11.23730251 26.78469002 10 23 C9.03365917 21.32500922 8.065978 19.65067566 7.078125 17.98828125 C4.01763698 12.34412037 1.92852641 6.10700031 0 0 Z " fill="#7853A7" transform="translate(191,117)"/>
<path d="M0 0 C0.66 0 1.32 0 2 0 C4.19774428 5.25768056 4.13957211 9.57133244 3.75 15.125 C3.71003906 15.92292969 3.67007813 16.72085938 3.62890625 17.54296875 C3.36415909 21.82901063 2.99630741 24.00738517 1 28 C0.67 18.76 0.34 9.52 0 0 Z " fill="#1E929F" transform="translate(124,80)"/>
<path d="M0 0 C0.33 0 0.66 0 1 0 C1 10.23 1 20.46 1 31 C1.66 31 2.32 31 3 31 C3.33 34.3 3.66 37.6 4 41 C0.46490611 37.46184807 -0.45528225 34.94286267 -0.45318604 29.94474792 C-0.43254089 29.1830983 -0.41189575 28.42144867 -0.390625 27.63671875 C-0.38496521 26.84473587 -0.37930542 26.05275299 -0.37347412 25.23677063 C-0.35117308 22.71971906 -0.30099139 20.20411757 -0.25 17.6875 C-0.22992675 15.97593209 -0.21167742 14.26434176 -0.1953125 12.55273438 C-0.15132925 8.36793515 -0.08234769 4.184213 0 0 Z " fill="#EC6C4A" transform="translate(244,85)"/>
<path d="M0 0 C0 0.99 0 1.98 0 3 C-0.95712891 3.30744141 -0.95712891 3.30744141 -1.93359375 3.62109375 C-2.75988281 3.89050781 -3.58617187 4.15992188 -4.4375 4.4375 C-5.67306641 4.83775391 -5.67306641 4.83775391 -6.93359375 5.24609375 C-8.96219588 5.82155494 -8.96219588 5.82155494 -10 7 C-9.34 7.66 -8.68 8.32 -8 9 C-13.94 8.67 -19.88 8.34 -26 8 C-26 7.67 -26 7.34 -26 7 C-24.90945313 6.87044922 -24.90945313 6.87044922 -23.796875 6.73828125 C-16.78512765 5.7584345 -10.84382069 3.95008131 -4.3984375 1.0234375 C-2 0 -2 0 0 0 Z " fill="#D26849" transform="translate(376,142)"/>
<path d="M0 0 C2.25 0.25 2.25 0.25 4 1 C-0.03783101 4.50944296 -4.2383589 6.84621337 -9 9.1875 C-10.04800781 9.72020508 -10.04800781 9.72020508 -11.1171875 10.26367188 C-14.72640455 12.05806563 -17.95545522 13.4707334 -22 14 C-18.10120039 10.79323732 -13.6733584 8.806898 -9.1328125 6.69335938 C-5.40488321 4.89739344 -2.85667896 2.9549592 0 0 Z " fill="#1F909F" transform="translate(129,171)"/>
<path d="M0 0 C2.0625 1.625 2.0625 1.625 4 4 C3.81623488 7.06275204 3.36973455 9.2605309 2 12 C1.34 12 0.68 12 0 12 C-0.33 11.01 -0.66 10.02 -1 9 C-3.475 10.485 -3.475 10.485 -6 12 C-4.55746343 8.63408134 -2.66735273 6.48952921 0 4 C0 4.66 0 5.32 0 6 C0.66 6 1.32 6 2 6 C1.34 4.02 0.68 2.04 0 0 Z M-8 12 C-6 13 -6 13 -6 13 Z " fill="#8E57C2" transform="translate(252,142)"/>
<path d="M0 0 C0.66 0.33 1.32 0.66 2 1 C2.125 6.75 2.125 6.75 1 9 C0.84876169 10.5195764 0.75118307 12.04472502 0.68359375 13.5703125 C0.64169922 14.46621094 0.59980469 15.36210938 0.55664062 16.28515625 C0.49766602 17.69087891 0.49766602 17.69087891 0.4375 19.125 C0.39431641 20.06988281 0.35113281 21.01476562 0.30664062 21.98828125 C0.20040928 24.32537092 0.09836824 26.6625683 0 29 C-0.33 29 -0.66 29 -1 29 C-1.02505615 28.40461426 -1.0501123 27.80922852 -1.07592773 27.19580078 C-1.19177494 24.50530864 -1.31455196 21.8151766 -1.4375 19.125 C-1.47681641 18.18785156 -1.51613281 17.25070313 -1.55664062 16.28515625 C-1.59853516 15.38925781 -1.64042969 14.49335937 -1.68359375 13.5703125 C-1.73858032 12.32918701 -1.73858032 12.32918701 -1.79467773 11.06298828 C-1.88238327 8.93820571 -1.88238327 8.93820571 -3 7 C-2.03114628 5.31503702 -1.03013277 3.64821244 0 2 C0 1.34 0 0.68 0 0 Z " fill="#9B57B7" transform="translate(242,77)"/>
<path d="M0 0 C6.0546875 -0.1953125 6.0546875 -0.1953125 8 0 C8.66 0.66 9.32 1.32 10 2 C8.60823368 2.96423026 7.2113777 3.92111602 5.8125 4.875 C5.03519531 5.40867188 4.25789063 5.94234375 3.45703125 6.4921875 C1.0323391 7.98015439 -1.3333499 9.02428078 -4 10 C-4 9.34 -4 8.68 -4 8 C-3.175 7.525625 -2.35 7.05125 -1.5 6.5625 C-0.2625 5.7890625 -0.2625 5.7890625 1 5 C1.2236068 2.0745356 1.2236068 2.0745356 0 0 Z " fill="#DD6647" transform="translate(394,171)"/>
<path d="M0 0 C0.66 0 1.32 0 2 0 C3.34695793 2.22187927 4.67741796 4.45117463 6 6.6875 C6.3815625 7.31333984 6.763125 7.93917969 7.15625 8.58398438 C9.2740864 12.1956518 10.51587721 14.78431589 10 19 C6.83923862 17.41961931 5.92943899 14.24828204 4.4375 11.1875 C4.12103516 10.55779297 3.80457031 9.92808594 3.47851562 9.27929688 C1.97466992 6.23648381 0.61636877 3.35203292 0 0 Z " fill="#3090AB" transform="translate(114,60)"/>
<path d="M0 0 C5.29012124 4.40843437 10.18808428 9.07559794 15 14 C14.34 14.66 13.68 15.32 13 16 C12.67 15.01 12.34 14.02 12 13 C11.34 13 10.68 13 10 13 C10 12.34 10 11.68 10 11 C9.360625 10.731875 8.72125 10.46375 8.0625 10.1875 C6 9 6 9 5 6 C4.01 5.67 3.02 5.34 2 5 C2 4.34 2 3.68 2 3 C1.34 3 0.68 3 0 3 C0 2.01 0 1.02 0 0 Z " fill="#D27151" transform="translate(397,143)"/>
<path d="M0 0 C0.83182686 2.32911522 1.23510559 3.49079027 0.17578125 5.78515625 C-0.21222656 6.51605469 -0.60023437 7.24695313 -1 8 C-1.39058594 8.91136719 -1.78117187 9.82273437 -2.18359375 10.76171875 C-2.59738281 11.72722656 -3.01117188 12.69273438 -3.4375 13.6875 C-3.84871094 14.66074219 -4.25992188 15.63398437 -4.68359375 16.63671875 C-6 19 -6 19 -9 20 C-7.60008749 16.42892687 -6.09189713 12.92705498 -4.5 9.4375 C-4.0771875 8.50808594 -3.654375 7.57867187 -3.21875 6.62109375 C-2.18269045 4.39290158 -1.11323357 2.19039012 0 0 Z " fill="#1892A0" transform="translate(124,110)"/>
<path d="M0 0 C0.66 0.33 1.32 0.66 2 1 C-0.33333333 5.66666667 -2.66666667 10.33333333 -5 15 C-5.66 15 -6.32 15 -7 15 C-7 14.01 -7 13.02 -7 12 C-6.34 12 -5.68 12 -5 12 C-4.67 10.68 -4.34 9.36 -4 8 C-5.32 8 -6.64 8 -8 8 C-7.67 7.01 -7.34 6.02 -7 5 C-5.02 5.495 -5.02 5.495 -3 6 C-2.690625 5.38125 -2.38125 4.7625 -2.0625 4.125 C-1.375 2.75 -0.6875 1.375 0 0 Z " fill="#8055BA" transform="translate(251,155)"/>
<path d="M0 0 C1.2003981 3.60119429 0.74273719 4.06668626 -0.8125 7.375 C-3.39693734 13.42025828 -4.22662379 19.50771026 -5 26 C-5.33 26 -5.66 26 -6 26 C-6.48046412 16.80000193 -6.10741295 7.3733753 0 0 Z " fill="#CD6B4A" transform="translate(295,67)"/>
<path d="M0 0 C0 0.66 0 1.32 0 2 C-2.265625 3.65625 -2.265625 3.65625 -5.25 5.5 C-6.22453125 6.1084375 -7.1990625 6.716875 -8.203125 7.34375 C-10.43790366 8.66713848 -12.65716472 9.88436415 -15 11 C-12.2323593 4.5421717 -7.13439326 0 0 0 Z " fill="#CF673F" transform="translate(321,44)"/>
<path d="M0 0 C0.33 0 0.66 0 1 0 C1.103125 1.051875 1.20625 2.10375 1.3125 3.1875 C1.99456403 6.96985505 2.96555638 8.82626796 5 12 C6.52083105 15.72603608 7.47902151 18.15454408 6 22 C5.34 22 4.68 22 4 22 C4 19.03 4 16.06 4 13 C3.34 13 2.68 13 2 13 C-0.24828052 8.50343896 -0.16682272 4.92127034 0 0 Z " fill="#A258B3" transform="translate(243,114)"/>
<path d="M0 0 C0.99 0.495 0.99 0.495 2 1 C2 2.32 2 3.64 2 5 C2.60199219 5.2475 3.20398438 5.495 3.82421875 5.75 C6.35397631 7.20336161 7.30624044 8.52445559 8.8125 11 C9.25207031 11.70125 9.69164062 12.4025 10.14453125 13.125 C10.42683594 13.74375 10.70914062 14.3625 11 15 C10.67 15.66 10.34 16.32 10 17 C8.50641753 15.30425586 7.03065303 13.59280776 5.5625 11.875 C4.73878906 10.92367187 3.91507812 9.97234375 3.06640625 8.9921875 C0.88953324 5.84004246 0.3081213 3.77588643 0 0 Z " fill="#C7653D" transform="translate(257,143)"/>
<path d="M0 0 C-2.27011209 0.75670403 -3.7289515 1.056637 -6.09375 0.5625 C-9.98887077 -0.19139434 -13.85559855 -0.36017729 -17.8125 -0.5625 C-18.60076172 -0.60568359 -19.38902344 -0.64886719 -20.20117188 -0.69335938 C-22.13394215 -0.79878321 -24.06695026 -0.89983094 -26 -1 C-26 -1.33 -26 -1.66 -26 -2 C-16.67494724 -2.91147132 -8.92492404 -3.26521611 0 0 Z " fill="#D47355" transform="translate(364,42)"/>
<path d="M0 0 C2.53115191 3.16393989 4.40901101 6.45648516 6.25 10.0625 C7.06210938 11.62677734 7.06210938 11.62677734 7.890625 13.22265625 C9 16 9 16 8 19 C6.8742531 16.91706723 5.74937917 14.83367092 4.625 12.75 C3.99851563 11.58984375 3.37203125 10.4296875 2.7265625 9.234375 C2.15679687 8.16703125 1.58703125 7.0996875 1 6 C0.36191406 4.86304687 0.36191406 4.86304687 -0.2890625 3.703125 C-0.52367187 3.14109375 -0.75828125 2.5790625 -1 2 C-0.67 1.34 -0.34 0.68 0 0 Z " fill="#7F57AF" transform="translate(180,93)"/>
<path d="M0 0 C7.61644202 1.24859705 13.38827536 4.07004031 20 8 C17.50907189 9.24546405 16.58919267 8.7767578 14 8 C14 7.34 14 6.68 14 6 C13.319375 6.0825 12.63875 6.165 11.9375 6.25 C7.13098738 5.8409351 3.4122104 3.4122104 0 0 Z " fill="#16919C" transform="translate(105,8)"/>
<path d="M0 0 C0.99 0 1.98 0 3 0 C3 1.98 3 3.96 3 6 C3.99 6.33 4.98 6.66 6 7 C6.66 10.3 7.32 13.6 8 17 C5.02823713 15.51411857 4.84611689 13.1184929 3.796875 10.13671875 C2.95022012 7.7507041 2.95022012 7.7507041 1.3125 4.625 C0 2 0 2 0 0 Z " fill="#736ECE" transform="translate(150,128)"/>
<path d="M0 0 C2.75 0.25 2.75 0.25 5 1 C5.33 2.32 5.66 3.64 6 5 C2.7 4.67 -0.6 4.34 -4 4 C-2.3125 1.9375 -2.3125 1.9375 0 0 Z " fill="#19A1BB" transform="translate(150,41)"/>
<path d="M0 0 C3.63061667 1.53218685 5.9863773 3.7183144 8.75 6.5 C9.94882813 7.69109375 9.94882813 7.69109375 11.171875 8.90625 C13 11 13 11 13 13 C12.34 13 11.68 13 11 13 C10.4225 12.2575 9.845 11.515 9.25 10.75 C7.09649866 7.83197795 7.09649866 7.83197795 3.8125 5.9375 C1 4 1 4 0.125 1.75 C0.08375 1.1725 0.0425 0.595 0 0 Z " fill="#248F9F" transform="translate(139,27)"/>
<path d="M0 0 C0.66 0.33 1.32 0.66 2 1 C1.34 3.97 0.68 6.94 0 10 C-1.32 10.33 -2.64 10.66 -4 11 C-3.25 5.25 -3.25 5.25 -1 3 C-0.67 2.01 -0.34 1.02 0 0 Z " fill="#9860E2" transform="translate(220,210)"/>
<path d="M0 0 C1.19519916 3.58559749 0.74530914 4.19722444 -0.8125 7.5 C-1.34810547 8.66015625 -1.34810547 8.66015625 -1.89453125 9.84375 C-3 12 -3 12 -5 15 C-5.66 14.67 -6.32 14.34 -7 14 C-4.69 9.38 -2.38 4.76 0 0 Z " fill="#7B57AF" transform="translate(225,114)"/>
<path d="M0 0 C0.66 0.33 1.32 0.66 2 1 C0.76446724 2.20254524 -0.48902339 3.38666232 -1.75 4.5625 C-2.44609375 5.22378906 -3.1421875 5.88507812 -3.859375 6.56640625 C-6 8 -6 8 -8.15625 7.8125 C-10.27740073 6.87775561 -11.48786323 5.73895728 -13 4 C-11.96875 4.268125 -10.9375 4.53625 -9.875 4.8125 C-5.81550241 5.0089273 -5.42461268 4.99427116 -2.5625 2.5625 C-1.716875 1.716875 -0.87125 0.87125 0 0 Z " fill="#D36E4E" transform="translate(393,48)"/>
<path d="M0 0 C1.65 0 3.3 0 5 0 C6.125 3.75 6.125 3.75 5 6 C2.64828869 5.40138258 0.3140622 4.73075648 -2 4 C-2.33 3.34 -2.66 2.68 -3 2 C-2.01 2 -1.02 2 0 2 C0 1.34 0 0.68 0 0 Z " fill="#EB6436" transform="translate(381,48)"/>
<path d="M0 0 C5.08938811 1.59043379 8.87456643 4.7446951 13 8 C12.01 8.495 12.01 8.495 11 9 C9.16015625 8.0390625 9.16015625 8.0390625 7.0625 6.625 C4.6262255 4.99474529 2.81111264 3.93703755 0 3 C0 2.01 0 1.02 0 0 Z " fill="#1B97A5" transform="translate(125,17)"/>
<path d="M0 0 C0.309375 0.804375 0.309375 0.804375 0.625 1.625 C2.57996944 5.0017654 5.18223695 7.30474839 8 10 C7.67 10.66 7.34 11.32 7 12 C3.37 8.7 -0.26 5.4 -4 2 C-2.68 1.34 -1.36 0.68 0 0 Z " fill="#D16743" transform="translate(272,159)"/>
<path d="M0 0 C1.46328423 4.45813929 -0.08219158 6.79557386 -2 11 C-2.69140522 13.77888613 -2.69140522 13.77888613 -3 16 C-3.99 15.67 -4.98 15.34 -6 15 C-5.39644592 11.14974121 -4.23227397 8.13898841 -2.4375 4.6875 C-1.98246094 3.80449219 -1.52742187 2.92148437 -1.05859375 2.01171875 C-0.53458984 1.01591797 -0.53458984 1.01591797 0 0 Z " fill="#D4623E" transform="translate(255,48)"/>
<path d="M0 0 C0.99 0 1.98 0 3 0 C3 1.98 3 3.96 3 6 C3.99 6.33 4.98 6.66 6 7 C6.33 9.31 6.66 11.62 7 14 C6.67 13.01 6.34 12.02 6 11 C5.34 11 4.68 11 4 11 C3.32880451 9.5437455 2.66318193 8.08492133 2 6.625 C1.62875 5.81289062 1.2575 5.00078125 0.875 4.1640625 C0 2 0 2 0 0 Z " fill="#7070CE" transform="translate(134,95)"/>
<path d="M0 0 C2.4375 1.0625 2.4375 1.0625 4 2 C1.47524538 3.26237731 -0.31200466 3.09856404 -3.125 3.0625 C-4.03507812 3.05347656 -4.94515625 3.04445313 -5.8828125 3.03515625 C-6.58148438 3.02355469 -7.28015625 3.01195312 -8 3 C-8.33 2.01 -8.66 1.02 -9 0 C-5.88094953 -1.55952523 -3.35318513 -0.6359489 0 0 Z " fill="#D75D38" transform="translate(380,6)"/>
<path d="M0 0 C0.99 0.33 1.98 0.66 3 1 C2.42365861 5.75481646 0.44931479 8.97048212 -2 13 C-3.55952523 9.88094953 -2.6359489 7.35318513 -2 4 C-0.9375 1.5625 -0.9375 1.5625 0 0 Z " fill="#8059B5" transform="translate(237,179)"/>
<path d="M0 0 C2.475 0.99 2.475 0.99 5 2 C4.01 2.495 4.01 2.495 3 3 C2.67 3.66 2.34 4.32 2 5 C1.01979625 6.0194119 0.02196992 7.02246356 -1 8 C-1.66 7.67 -2.32 7.34 -3 7 C-2.67 5.35 -2.34 3.7 -2 2 C-1.34 2 -0.68 2 0 2 C0 1.34 0 0.68 0 0 Z " fill="#EF6D4A" transform="translate(389,10)"/>
<path d="M0 0 C0.66 0 1.32 0 2 0 C2.433125 1.2065625 2.433125 1.2065625 2.875 2.4375 C3.73262568 5.1326468 3.73262568 5.1326468 6 6 C6.5625 8.3125 6.5625 8.3125 7 11 C7.32483418 12.33542939 7.6550855 13.66961551 8 15 C5.31874582 12.61753661 3.88576541 10.1454496 2.3125 6.9375 C1.87550781 6.05964844 1.43851563 5.18179688 0.98828125 4.27734375 C0 2 0 2 0 0 Z " fill="#7A57AA" transform="translate(170,169)"/>
<path d="M0 0 C0.66 0 1.32 0 2 0 C6 6.625 6 6.625 6 10 C5.34 10 4.68 10 4 10 C2 7 2 7 2 4 C1.01 4.33 0.02 4.66 -1 5 C-0.67 3.35 -0.34 1.7 0 0 Z " fill="#5B7DCB" transform="translate(124,76)"/>
<path d="M0 0 C0.268125 0.639375 0.53625 1.27875 0.8125 1.9375 C1.88667752 4.33131686 1.88667752 4.33131686 5 5 C5.73046875 7.06640625 5.73046875 7.06640625 6.1875 9.5625 C6.34605469 10.38878906 6.50460938 11.21507812 6.66796875 12.06640625 C6.77753906 12.70449219 6.88710937 13.34257812 7 14 C4.66714622 11.86099367 3.2131241 9.83344647 1.8125 7 C1.46832031 6.319375 1.12414062 5.63875 0.76953125 4.9375 C0 3 0 3 0 0 Z " fill="#734BAA" transform="translate(179,186)"/>
<path d="M0 0 C0.33 1.32 0.66 2.64 1 4 C1.66 4 2.32 4 3 4 C3.33 3.34 3.66 2.68 4 2 C3.67 4.64 3.34 7.28 3 10 C2.34 10 1.68 10 1 10 C0.63720544 8.71073008 0.28503302 7.41846728 -0.0625 6.125 C-0.35833984 5.04605469 -0.35833984 5.04605469 -0.66015625 3.9453125 C-1 2 -1 2 0 0 Z " fill="#E96A55" transform="translate(250,128)"/>
<path d="M0 0 C0.66 0 1.32 0 2 0 C2.86604534 1.76505435 3.71748642 3.53728074 4.5625 5.3125 C5.27599609 6.79169922 5.27599609 6.79169922 6.00390625 8.30078125 C7 11 7 11 6 14 C4.99515796 12.04414675 3.99626195 10.08523763 3 8.125 C2.1646875 6.48917969 2.1646875 6.48917969 1.3125 4.8203125 C0 2 0 2 0 0 Z " fill="#725BA3" transform="translate(161,54)"/>
<path d="M0 0 C2.71843438 3.62457917 3.41789544 4.80884715 4 9 C3.34 9 2.68 9 2 9 C1.34 9.99 0.68 10.98 0 12 C0 8.04 0 4.08 0 0 Z " fill="#EB6D3B" transform="translate(248,118)"/>
<path d="M0 0 C3 1 3 1 4.1875 3.0625 C4.455625 3.701875 4.72375 4.34125 5 5 C3 7 3 7 0.375 7.125 C-0.40875 7.08375 -1.1925 7.0425 -2 7 C-1.67 6.21625 -1.34 5.4325 -1 4.625 C0.11866511 2.15667503 0.11866511 2.15667503 0 0 Z " fill="#8C59CD" transform="translate(172,83)"/>
<path d="M0 0 C-0.33 0.99 -0.66 1.98 -1 3 C-1.66 3 -2.32 3 -3 3 C-3.268125 3.61875 -3.53625 4.2375 -3.8125 4.875 C-5 7 -5 7 -8 9 C-7.64598897 5.81390075 -7.16972964 4.20933322 -5.125 1.6875 C-3 0 -3 0 0 0 Z " fill="#D06438" transform="translate(306,55)"/>
<path d="M0 0 C4.77609498 1.64178265 8.79382904 4.26546702 13 7 C10 8 10 8 7.51953125 6.85546875 C6.62621094 6.30503906 5.73289062 5.75460938 4.8125 5.1875 C3.91144531 4.64480469 3.01039063 4.10210937 2.08203125 3.54296875 C1.39496094 3.03378906 0.70789063 2.52460938 0 2 C0 1.34 0 0.68 0 0 Z " fill="#CA6243" transform="translate(309,138)"/>
<path d="M0 0 C0.33 1.32 0.66 2.64 1 4 C1.66 4 2.32 4 3 4 C6 10.75 6 10.75 6 13 C5.34 13 4.68 13 4 13 C4 11.68 4 10.36 4 9 C3.34 9 2.68 9 2 9 C2 8.01 2 7.02 2 6 C1.34 6 0.68 6 0 6 C0 4.02 0 2.04 0 0 Z " fill="#3A96D2" transform="translate(129,86)"/>
<path d="M0 0 C1 3 1 3 -0.4375 6.1875 C-1.2109375 7.5796875 -1.2109375 7.5796875 -2 9 C-2.99 8.67 -3.98 8.34 -5 8 C-4.34 6.02 -3.68 4.04 -3 2 C-2.34 2 -1.68 2 -1 2 C-0.67 1.34 -0.34 0.68 0 0 Z " fill="#8861B9" transform="translate(225,209)"/>
<path d="M0 0 C2.31 0.33 4.62 0.66 7 1 C7.33 1.99 7.66 2.98 8 4 C5.03 3.67 2.06 3.34 -1 3 C-0.67 2.01 -0.34 1.02 0 0 Z " fill="#EC6B2B" transform="translate(319,148)"/>
<path d="M0 0 C0.99 0 1.98 0 3 0 C3.33 3.3 3.66 6.6 4 10 C0.06153846 5.69230769 0.06153846 5.69230769 -0.25 2.1875 C-0.1675 1.465625 -0.085 0.74375 0 0 Z " fill="#DE6567" transform="translate(244,116)"/>
<path d="M0 0 C6.625 -0.25 6.625 -0.25 10 2 C5.84347947 2.87505695 3.09959531 3.09322542 -1 2 C-0.67 1.34 -0.34 0.68 0 0 Z " fill="#18B0D3" transform="translate(107,178)"/>
<path d="M0 0 C0 4.38968456 -2.12805101 5.76905739 -5 9 C-6 7 -6 7 -5.3125 4.5 C-3.84432962 1.70348499 -2.90696099 1.06588569 0 0 Z " fill="#FA6C38" transform="translate(392,45)"/>
<path d="M0 0 C1.65 0 3.3 0 5 0 C3.68 0.33 2.36 0.66 1 1 C1.33 3.97 1.66 6.94 2 10 C1.34 10 0.68 10 0 10 C-0.66 7.69 -1.32 5.38 -2 3 C-1.34 3 -0.68 3 0 3 C0 2.01 0 1.02 0 0 Z " fill="#6376D0" transform="translate(114,48)"/>
<path d="M0 0 C2 2 2 2 2.125 5.125 C2.08375 6.07375 2.0425 7.0225 2 8 C1.01 7.67 0.02 7.34 -1 7 C-1.625 4.625 -1.625 4.625 -2 2 C-1.34 1.34 -0.68 0.68 0 0 Z " fill="#845BC3" transform="translate(166,154)"/>
<path d="M0 0 C4.8 3.44615385 4.8 3.44615385 5.8125 6.25 C5.874375 6.8275 5.93625 7.405 6 8 C5.4121875 7.2575 5.4121875 7.2575 4.8125 6.5 C2.44908285 4.54406857 0.98564997 4.75792027 -2 5 C-2 4.34 -2 3.68 -2 3 C-1.34 3 -0.68 3 0 3 C0 2.01 0 1.02 0 0 Z " fill="#F46C42" transform="translate(295,125)"/>
<path d="M0 0 C0.66 0.33 1.32 0.66 2 1 C2.125 3.875 2.125 3.875 2 7 C1.34 7.66 0.68 8.32 0 9 C-0.99 9 -1.98 9 -3 9 C-2 6 -1 3 0 0 Z " fill="#965E8F" transform="translate(242,77)"/>
<path d="M0 0 C3 1 3 1 4.25 3.4375 C5 6 5 6 4 8 C2.68 7.34 1.36 6.68 0 6 C0.33 5.01 0.66 4.02 1 3 C0.67 2.01 0.34 1.02 0 0 Z " fill="#845BBB" transform="translate(157,48)"/>
<path d="M0 0 C0.66 0.33 1.32 0.66 2 1 C1.74438677 3.3431213 1.40729228 5.67843403 1 8 C0.01 8.495 0.01 8.495 -1 9 C-0.67 7.35 -0.34 5.7 0 4 C-0.99 4 -1.98 4 -3 4 C-3 3.34 -3 2.68 -3 2 C-2.01 2 -1.02 2 0 2 C0 1.34 0 0.68 0 0 Z " fill="#D86B46" transform="translate(411,25)"/>
<path d="M0 0 C-1.26149851 3.78449552 -2.58844695 4.13176857 -6 6 C-6.99 6.66 -7.98 7.32 -9 8 C-9 7.01 -9 6.02 -9 5 C-3.76744186 0 -3.76744186 0 0 0 Z " fill="#CE623A" transform="translate(279,24)"/>
<path d="M0 0 C0.66 0 1.32 0 2 0 C4.21538462 5.41538462 4.21538462 5.41538462 3.125 8.375 C2.75375 8.91125 2.3825 9.4475 2 10 C-0.09350689 6.5980513 -0.17942163 3.94727588 0 0 Z " fill="#219FB6" transform="translate(124,80)"/>
<path d="M0 0 C1.6286551 0.42369072 3.25287378 0.8644623 4.875 1.3125 C5.77992187 1.55613281 6.68484375 1.79976562 7.6171875 2.05078125 C10 3 10 3 12 6 C7.24518354 5.42365861 4.02951788 3.44931479 0 1 C0 0.67 0 0.34 0 0 Z " fill="#1897A1" transform="translate(91,44)"/>
<path d="M0 0 C0.99 1.32 1.98 2.64 3 4 C2.34 5.32 1.68 6.64 1 8 C0.34 8 -0.32 8 -1 8 C-1.125 2.25 -1.125 2.25 0 0 Z " fill="#965DE2" transform="translate(217,134)"/>
<path d="M0 0 C0 0.66 0 1.32 0 2 C-2.70879335 3.35439668 -5.00933268 3.06501451 -8 3 C-8 2.34 -8 1.68 -8 1 C-5.29120665 -0.35439668 -2.99066732 -0.06501451 0 0 Z " fill="#E96D35" transform="translate(330,5)"/>
<path d="M0 0 C0 0.66 0 1.32 0 2 C-6.625 5.125 -6.625 5.125 -10 4 C-3.375 0 -3.375 0 0 0 Z " fill="#C25E38" transform="translate(389,180)"/>
<path d="M0 0 C0.66 0.66 1.32 1.32 2 2 C0.625 4.5 0.625 4.5 -1 7 C-1.66 7 -2.32 7 -3 7 C-2.67 6.01 -2.34 5.02 -2 4 C-2.66 3.34 -3.32 2.68 -4 2 C-2.68 2 -1.36 2 0 2 C0 1.34 0 0.68 0 0 Z " fill="#F0733E" transform="translate(412,158)"/>
<path d="M0 0 C0.99 0.495 0.99 0.495 2 1 C2 2.32 2 3.64 2 5 C2.99 5.33 3.98 5.66 5 6 C4.67 6.99 4.34 7.98 4 9 C0 4.5 0 4.5 0 0 Z " fill="#D56746" transform="translate(257,143)"/>
<path d="M0 0 C0.33 0.66 0.66 1.32 1 2 C1.66 2 2.32 2 3 2 C1.42655961 5.14688078 -1.27851951 6.79965407 -4 9 C-2.80100302 5.9168649 -1.52299523 2.93720508 0 0 Z " fill="#865CB6" transform="translate(211,142)"/>
<path d="M0 0 C-0.33 1.32 -0.66 2.64 -1 4 C-5.875 2.25 -5.875 2.25 -7 0 C-3.86650268 -1.04449911 -3.01031744 -0.93423645 0 0 Z " fill="#20A4BB" transform="translate(97,146)"/>
<path d="M0 0 C-0.33 1.32 -0.66 2.64 -1 4 C-3.475 3.01 -3.475 3.01 -6 2 C-6 1.34 -6 0.68 -6 0 C-3 -1 -3 -1 0 0 Z " fill="#DF6735" transform="translate(397,142)"/>
<path d="M0 0 C0.66 0.99 1.32 1.98 2 3 C1.34 3 0.68 3 0 3 C-0.12375 3.78375 -0.2475 4.5675 -0.375 5.375 C-1 8 -1 8 -3 10 C-3 5.66905042 -2.03435531 3.72965139 0 0 Z " fill="#9764E0" transform="translate(224,120)"/>
<path d="M0 0 C2.50298434 2.93828597 3.46930939 5.17902761 4 9 C1.4375 6.75 1.4375 6.75 -1 4 C-0.8125 1.6875 -0.8125 1.6875 0 0 Z " fill="#764DB2" transform="translate(180,93)"/>
<path d="M0 0 C0.99 0.99 1.98 1.98 3 3 C2.67 3.66 2.34 4.32 2 5 C1.01 5 0.02 5 -1 5 C-1.33 3.68 -1.66 2.36 -2 1 C-1.34 0.67 -0.68 0.34 0 0 Z " fill="#9662E2" transform="translate(156,48)"/>
<path d="M0 0 C3.37503669 1.1858237 5.64722731 2.27573689 8 5 C6.68 5.33 5.36 5.66 4 6 C3.896875 5.360625 3.79375 4.72125 3.6875 4.0625 C3.460625 3.381875 3.23375 2.70125 3 2 C2.01 1.67 1.02 1.34 0 1 C0 0.67 0 0.34 0 0 Z " fill="#19B5CF" transform="translate(126,20)"/>
<path d="M0 0 C3.53372712 1.96318174 6.24479785 4.04070881 9 7 C5.56072421 5.7580393 2.74792181 4.44259716 0 2 C0 1.34 0 0.68 0 0 Z " fill="#CB6746" transform="translate(402,18)"/>
</svg>
